<svg width="10" height="13" viewBox="0 0 10 13" fill="none" xmlns="http://www.w3.org/2000/svg">
<path d="M5.17437 11.4587C4.20048 11.4587 3.3176 11.2508 2.52575 10.8351C1.74299 10.4104 1.12407 9.82753 0.668982 9.08651C0.222994 8.33645 0 7.49151 0 6.55168C0 5.61186 0.222994 4.77143 0.668982 4.03041C1.12407 3.28036 1.74299 2.69749 2.52575 2.28179C3.3176 1.85706 4.20503 1.6447 5.18802 1.6447C6.01629 1.6447 6.76263 1.78929 7.42707 2.07846C8.1006 2.36764 8.66491 2.78334 9.12 3.32554L7.70012 4.62684C7.05389 3.88583 6.25293 3.51532 5.29725 3.51532C4.70563 3.51532 4.17772 3.64635 3.71353 3.90842C3.24934 4.16145 2.88527 4.5184 2.62132 4.97928C2.36647 5.44016 2.23904 5.96429 2.23904 6.55168C2.23904 7.13908 2.36647 7.66321 2.62132 8.12409C2.88527 8.58496 3.24934 8.94644 3.71353 9.2085C4.17772 9.46153 4.70563 9.58805 5.29725 9.58805C6.25293 9.58805 7.05389 9.21302 7.70012 8.46297L9.12 9.76427C8.66491 10.3155 8.1006 10.7357 7.42707 11.0249C6.75353 11.3141 6.00263 11.4587 5.17437 11.4587Z" fill="#B030B0"/>
<path d="M3.25996 0H4.01844V12.8021H3.25996V0Z" fill="#B030B0"/>
<path d="M4.77693 0H5.53541V12.8021H4.77693V0Z" fill="#B030B0"/>
</svg>
